# xmcd CD database file
#
# Track frame offsets:
#	150
#	1799
#	17257
#	41719
#	57825
#	78831
#	101959
#	115532
#	129187
#	151893
#	172654
#
# Disc length: 2470 seconds
#
# Revision: 0
# Processed by: cddbd v1.5.1PL0 Copyright (c) Steve Scherf et al.
# Submitted via: CDex 1.51
#
DISCID=6a09a40b
DTITLE=Avi Rapps - Goin' Chassidish - True Evolution
DYEAR=2004
DGENRE=Rhythmic Soul
TTITLE0=Intro
TTITLE1=Goin' Chassidish
TTITLE2=Never
TTITLE3=Mikvah Dip
TTITLE4=Something's Gonna Happen
TTITLE5=Yearnings
TTITLE6=Farbreing All Night
TTITLE7=Baal Teshuvah
TTITLE8=Yesh
TTITLE9=Soul Time
TTITLE10=Farbreing All Night (Remix)
EXTD=YEAR: 2004
EXTT0=
EXTT1=
EXTT2=
EXTT3=
EXTT4=
EXTT5=
EXTT6=
EXTT7=
EXTT8=
EXTT9=
EXTT10=
PLAYORDER=
